
<svg xmlns="http://www.w3.org/2000/svg" enable-background="new 0 0 102 15" viewBox="0 0 102 15">
  <defs/>
  <path fill="#fffffe" fill-rule="evenodd" d="M4 14.8h2.7c.3 0 .5-.2.5-.5V3.5h3.1c.3 0 .5-.2.5-.5V.7c0-.3-.2-.5-.5-.5H.5C.2.2 0 .4 0 .7V3c0 .3.2.5.5.5h3.1v10.8c-.1.3.1.5.4.5m10.6 0h8.7c.3 0 .5-.2.5-.5v-2.2c0-.3-.2-.5-.5-.5h-5.7V9h4.6c.3 0 .5-.2.5-.5V6.3c0-.3-.2-.5-.5-.5h-4.6V3.3h5.6c.3 0 .5-.2.5-.5V.7c0-.3-.2-.5-.5-.5h-8.6c-.3 0-.5.2-.5.5v13.6c.1.3.3.5.5.5m13.4 0h8c.3 0 .5-.2.5-.5v-2.4c0-.3-.2-.5-.5-.5h-4.9V.7c0-.3-.2-.5-.5-.5H28c-.3 0-.5.2-.5.5v13.6c0 .3.2.5.5.5m12.7 0h8.6c.3 0 .5-.2.5-.5v-2.2c0-.3-.2-.5-.5-.5h-5.6V9h4.5c.3 0 .5-.2.5-.5V6.3c0-.3-.2-.5-.5-.5h-4.5V3.3h5.5c.3 0 .5-.2.5-.5V.7c0-.3-.2-.5-.5-.5h-8.5c-.3 0-.5.2-.5.5v13.6c.1.3.2.5.5.5" clip-rule="evenodd"/>
  <path fill="#f03" fill-rule="evenodd" d="M92.9 14.8h8.6c.3 0 .5-.2.5-.5v-2.2c0-.3-.2-.5-.5-.5h-5.6V9h4.5c.3 0 .5-.2.5-.5V6.3c0-.3-.2-.5-.5-.5h-4.5V3.3h5.5c.3 0 .5-.2.5-.5V.7c0-.3-.2-.5-.5-.5h-8.5c-.3 0-.5.2-.5.5v13.6c0 .3.2.5.5.5m-16.4 0H79c.3 0 .5-.2.5-.5V7l7.6 7.4c.2.2.4.3.7.3h.5c.3 0 .5-.2.5-.5V.7c0-.3-.2-.5-.5-.5h-2.5c-.3 0-.5.2-.5.5V8L77.9.5c-.2-.2-.4-.3-.7-.3h-.7c-.3 0-.5.2-.5.5v13.6c0 .3.2.5.5.5" clip-rule="evenodd"/>
  <g transform="translate(53.05)">
    <defs>
      <filter id="a" width="19.1" height="15" x=".1" y="0" filterUnits="userSpaceOnUse">
        <feColorMatrix values="1 0 0 0 0 0 1 0 0 0 0 0 1 0 0 0 0 0 1 0"/>
      </filter>
    </defs>
    <mask id="b" width="19.1" height="15" x=".1" y="0" maskUnits="userSpaceOnUse">
      <g filter="url(#a)">
        <path fill="#fff" fill-rule="evenodd" d="M.1 0h19.1v15H.1V0z" clip-rule="evenodd"/>
      </g>
    </mask>
    <path fill="#f03" fill-rule="evenodd" d="M16.1 14.8h2.7c.3 0 .5-.2.5-.5V.7c0-.3-.2-.5-.5-.5h-2.7c-.3 0-.5.2-.5.5v13.6c0 .3.2.5.5.5m-8.7.2c2.1 0 4-1 5.2-2.2.2-.2.3-.5 0-.7l-1.5-1.6c-.2-.2-.4-.2-.6 0-1 .8-1.9 1.1-3 1.1-2.2 0-3.9-1.6-3.9-4.2s1.7-4.2 3.9-4.2c1 0 1.8.3 2.8 1.1.2.2.4.2.6 0l1.5-1.5c.2-.2.3-.5 0-.7C11.2.9 9.4 0 7.5 0 3.5 0 .1 3.2.1 7.5c0 4.4 3 7.5 7.3 7.5" clip-rule="evenodd" mask="url(#b)"/>
  </g>
</svg>
